<svg xmlns="http://www.w3.org/2000/svg" xmlns:xlink="http://www.w3.org/1999/xlink" width="100" zoomAndPan="magnify" viewBox="0 0 75 74.999997" height="100" preserveAspectRatio="xMidYMid meet" version="1.0"><defs><clipPath id="c2979c42c7"><path d="M 7.5 8.09375 L 30 8.09375 L 30 30.59375 L 7.5 30.59375 Z M 7.5 8.09375 " clip-rule="nonzero"/></clipPath><clipPath id="8da7d70afd"><path d="M 18.75 8.09375 C 12.535156 8.09375 7.5 13.128906 7.5 19.34375 C 7.5 25.558594 12.535156 30.59375 18.75 30.59375 C 24.964844 30.59375 30 25.558594 30 19.34375 C 30 13.128906 24.964844 8.09375 18.75 8.09375 Z M 18.75 8.09375 " clip-rule="nonzero"/></clipPath><clipPath id="3face6848e"><path d="M 45 8.09375 L 67.5 8.09375 L 67.5 30.59375 L 45 30.59375 Z M 45 8.09375 " clip-rule="nonzero"/></clipPath><clipPath id="2061340d81"><path d="M 56.25 8.09375 C 50.035156 8.09375 45 13.128906 45 19.34375 C 45 25.558594 50.035156 30.59375 56.25 30.59375 C 62.464844 30.59375 67.5 25.558594 67.5 19.34375 C 67.5 13.128906 62.464844 8.09375 56.25 8.09375 Z M 56.25 8.09375 " clip-rule="nonzero"/></clipPath><clipPath id="2193377452"><path d="M 7.5 42.75 L 30 42.75 L 30 65.25 L 7.5 65.25 Z M 7.5 42.75 " clip-rule="nonzero"/></clipPath><clipPath id="a24c943069"><path d="M 18.75 42.75 C 12.535156 42.75 7.5 47.785156 7.5 54 C 7.5 60.214844 12.535156 65.25 18.75 65.25 C 24.964844 65.25 30 60.214844 30 54 C 30 47.785156 24.964844 42.75 18.75 42.75 Z M 18.75 42.75 " clip-rule="nonzero"/></clipPath><clipPath id="e4220a9203"><path d="M 45 42.75 L 67.5 42.75 L 67.5 65.25 L 45 65.25 Z M 45 42.75 " clip-rule="nonzero"/></clipPath><clipPath id="3e7a09b8b4"><path d="M 56.25 42.75 C 50.035156 42.75 45 47.785156 45 54 C 45 60.214844 50.035156 65.25 56.25 65.25 C 62.464844 65.25 67.5 60.214844 67.5 54 C 67.5 47.785156 62.464844 42.75 56.25 42.75 Z M 56.25 42.75 " clip-rule="nonzero"/></clipPath></defs><path stroke-linecap="butt" transform="matrix(0.75, 0, 0, 0.75, 25.499999, 17.093523)" fill="none" stroke-linejoin="miter" d="M 0.000000776667 3.000303 L 25.218753 3.000303 " stroke="#129fc1" stroke-width="6" stroke-opacity="1" stroke-miterlimit="4"/><g clip-path="url(#c2979c42c7)"><g clip-path="url(#8da7d70afd)"><path stroke-linecap="butt" transform="matrix(0.75, 0, 0, 0.75, 7.500001, 8.093524)" fill="none" stroke-linejoin="miter" d="M 14.999999 0.000301841 C 6.713541 0.000301841 -0.00000118333 6.713844 -0.00000118333 15.000302 C -0.00000118333 23.286761 6.713541 30.000302 14.999999 30.000302 C 23.286458 30.000302 29.999999 23.286761 29.999999 15.000302 C 29.999999 6.713844 23.286458 0.000301841 14.999999 0.000301841 Z M 14.999999 0.000301841 " stroke="#129fc1" stroke-width="18" stroke-opacity="1" stroke-miterlimit="4"/></g></g><g clip-path="url(#3face6848e)"><g clip-path="url(#2061340d81)"><path stroke-linecap="butt" transform="matrix(0.75, 0, 0, 0.75, 44.999998, 8.093524)" fill="none" stroke-linejoin="miter" d="M 15.000003 0.000301841 C 6.713545 0.000301841 0.0000029 6.713844 0.0000029 15.000302 C 0.0000029 23.286761 6.713545 30.000302 15.000003 30.000302 C 23.286462 30.000302 30.000003 23.286761 30.000003 15.000302 C 30.000003 6.713844 23.286462 0.000301841 15.000003 0.000301841 Z M 15.000003 0.000301841 " stroke="#129fc1" stroke-width="18" stroke-opacity="1" stroke-miterlimit="4"/></g></g><g clip-path="url(#2193377452)"><g clip-path="url(#a24c943069)"><path stroke-linecap="butt" transform="matrix(0.75, 0, 0, 0.75, 7.500001, 42.749996)" fill="none" stroke-linejoin="miter" d="M 14.999999 0.00000598833 C 6.713541 0.00000598833 -0.00000118333 6.713548 -0.00000118333 15.000006 C -0.00000118333 23.286465 6.713541 30.000007 14.999999 30.000007 C 23.286458 30.000007 29.999999 23.286465 29.999999 15.000006 C 29.999999 6.713548 23.286458 0.00000598833 14.999999 0.00000598833 Z M 14.999999 0.00000598833 " stroke="#129fc1" stroke-width="18" stroke-opacity="1" stroke-miterlimit="4"/></g></g><g clip-path="url(#e4220a9203)"><g clip-path="url(#3e7a09b8b4)"><path stroke-linecap="butt" transform="matrix(0.75, 0, 0, 0.75, 44.999998, 42.749996)" fill="none" stroke-linejoin="miter" d="M 15.000003 0.00000598833 C 6.713545 0.00000598833 0.0000029 6.713548 0.0000029 15.000006 C 0.0000029 23.286465 6.713545 30.000007 15.000003 30.000007 C 23.286462 30.000007 30.000003 23.286465 30.000003 15.000006 C 30.000003 6.713548 23.286462 0.00000598833 15.000003 0.00000598833 Z M 15.000003 0.00000598833 " stroke="#129fc1" stroke-width="18" stroke-opacity="1" stroke-miterlimit="4"/></g></g><path stroke-linecap="round" transform="matrix(0, 0.75, -0.75, 0, 58.495653, 26.815523)" fill="none" stroke-linejoin="miter" d="M 3.001177 2.999412 L 24.683471 2.999412 " stroke="#129fc1" stroke-width="6" stroke-opacity="1" stroke-miterlimit="4"/><path stroke-linecap="butt" transform="matrix(0.000000001309, 0.75, -0.75, 0.000000001309, 20.996856, 24.753141)" fill="none" stroke-linejoin="miter" d="M 0.00102036 3.001016 L 23.412481 3.001016 " stroke="#129fc1" stroke-width="6" stroke-opacity="1" stroke-miterlimit="4"/><path stroke-linecap="butt" transform="matrix(0.75, 0, 0, 0.75, 30.464424, 53.326967)" fill="none" stroke-linejoin="miter" d="M 0.000559704 3.001544 L 25.38077 3.001544 " stroke="#129fc1" stroke-width="6" stroke-opacity="1" stroke-miterlimit="4"/><path stroke-linecap="butt" transform="matrix(0.53033, -0.53033, 0.53033, 0.53033, 23.907603, 47.905613)" fill="none" stroke-linejoin="miter" d="M 0.00180668 3.000847 L 46.670858 3.000847 " stroke="#129fc1" stroke-width="6" stroke-opacity="1" stroke-miterlimit="4"/><path stroke-linecap="butt" transform="matrix(0.53033, -0.53033, 0.53033, 0.53033, 23.60206, 49.644182)" fill="none" stroke-linejoin="miter" d="M 0.894134 7.833278 C 16.450484 0.0551027 32.006835 0.0551027 47.563185 7.833278 " stroke="#129fc1" stroke-width="4" stroke-opacity="1" stroke-miterlimit="4"/><path stroke-linecap="butt" transform="matrix(-0.553259, 0.506364, -0.506364, -0.553259, 51.552914, 26.040678)" fill="none" stroke-linejoin="miter" d="M 0.896497 7.834439 C 16.451963 0.0569539 32.008671 0.0541437 47.566947 7.833367 " stroke="#129fc1" stroke-width="4" stroke-opacity="1" stroke-miterlimit="4"/></svg>